<svg id="Layer_1" data-name="Layer 1" xmlns="http://www.w3.org/2000/svg" viewBox="0 0 419.83 658.67"><defs><style>.cls-1{fill:#fff;}.cls-2{fill:#231f20;}</style></defs><title>Artboard 3</title><path class="cls-1" d="M114.53,175.48C96.77,169,80.18,159.72,71.8,141.93,66.86,131.46,68,122.31,77.25,115c9.07-7.12,22.18,2.77,28.65,9.31.91.91,4.62,6,5.5,5.32.73-.56.33-6.84.48-8,.46-3.72,1.06-10.43,5.57-11.43a9.84,9.84,0,0,1,6.24,1.1,31.47,31.47,0,0,1,11.8,10.37c3.85,5.35,6.44,11.42,9.5,17.22"/><path class="cls-2" d="M115.53,171.86c-15-5.52-30-13.49-38.36-27.76-4.29-7.33-6.86-16.09-.75-23.19s13.56-4.33,20.26.42a43.26,43.26,0,0,1,6.92,6c1.59,1.75,3,4.14,5.09,5.32,5.89,3.25,6.91-3.82,6.92-7.89a28.86,28.86,0,0,1,.7-7.29c.42-1.68.7-3.41,2.73-3.71s5.19,1.94,6.84,3.17c7.81,5.83,11.53,15.45,15.87,23.82,2.23,4.29,8.7.5,6.48-3.78-3.66-7-6.87-14.39-12-20.49-4.07-4.81-10.47-10.18-17.14-10.22-5.54,0-8.74,4.25-10,9.22a37,37,0,0,0-1,6.62c-.08,1.43.47,4.91.07,5.62l3.23-1.86c1.43.69,1.63.62.6-.22-.47-.5-.93-1-1.37-1.54-.59-.68-1.12-1.41-1.73-2.07a45.27,45.27,0,0,0-5.47-5c-4.55-3.63-9.76-6.94-15.59-8-11.23-2-21.23,8-22.5,18.8-1.42,12,6.74,24.2,15,32.16,9.32,9,21.17,14.59,33.18,19,4.54,1.67,6.5-5.58,2-7.23Z"/><path class="cls-2" d="M301.83,366.34c1.29,38.93,23.33,72,46.28,101.89,22.75,29.62,49,60.28,55.44,98.28,3.14,18.48.74,39-13.05,52.77C377.68,632,359.33,639,341.82,642.1a111.86,111.86,0,0,1-55.54-4.55c-8.1-2.78-18.13-6.48-23.5-13.53-4.73-6.22-5.25-14.59-5-22.09.72-19.29,6.53-37.92,4.5-57.4a74,74,0,0,0-23.4-47.33c-27.2-25.36-64.26-30.77-97.11-45.33-16-7.11-30.54-16.84-41.19-31-9.92-13.17-16.35-28.56-20.9-44.32-4.73-16.4-7.57-33.3-9.85-50.21-2.81-20.72-5.54-41.61-6-62.54-.42-21.13,2.37-41.56,9.68-61.44C80.42,183.76,90,166.3,97.8,148.1c15.9-37,20.92-76.94,11.1-116.37A179.7,179.7,0,0,0,99.19,3.64C97.56-.11,92.14-.88,88.93,1c-3.87,2.2-4.3,6.57-2.7,10.26,16.18,37.29,16.87,80,3,118.09C82.2,148.8,72.11,167.05,64,186.13c-8.4,19.82-13.73,40-14.88,61.59-1.18,22.22,1.41,44.42,4.15,66.44,2.22,17.84,4.56,35.72,8.58,53.27,7.94,34.63,23.48,68.05,54.29,87.81,31.61,20.29,71,23.43,102.13,44.6,14.58,9.9,25.53,23.77,28.55,41.42,3.42,19.91-2.88,39.4-4,59.16-.48,8.86.38,17.86,4.08,26,3.93,8.69,11.31,14.75,19.67,19a124.63,124.63,0,0,0,57.17,13.24c36.79-.31,83.25-17.38,93.35-56.77,10.14-39.55-10.25-79-32.58-110.34-22.47-31.48-51.32-60.69-63.1-98.42a100.45,100.45,0,0,1-4.64-26.79c-.32-9.63-15.32-9.67-15,0Z"/><path class="cls-1" d="M389.69,312.23c8,17.11,13.16,35.43,6.5,53.93-3.92,10.9-11.17,16.59-22.88,15.18-11.45-1.38-13.73-17.65-13.69-26.84,0-1.29,1-7.52-.12-7.66-.91-.11-5.07,4.61-6,5.33-3,2.3-8.13,6.62-12,4.15a10,10,0,0,1-3.63-5.2,31.4,31.4,0,0,1-1-15.67c1.06-6.51,3.52-12.63,5.46-18.9"/><path class="cls-2" d="M386.45,314.12c7.72,16.73,14.26,38.93,3.74,56.05a15.75,15.75,0,0,1-17,7.37c-6.07-1.4-8.09-8.51-9.07-13.87s0-10.17-.35-15.36c-.46-6.06-5.44-5.92-9.16-2.5a56.33,56.33,0,0,1-5.85,5.28c-1.51,1-3.67,2.84-5.64,1.78-1.65-.88-2.3-4.53-2.62-6.13-2-10,2.46-19.89,5.4-29.19,1.46-4.61-5.77-6.59-7.23-2-3.79,12-11.4,30.33-1.7,41.66,3.61,4.23,8.67,4.26,13.34,1.75a32.89,32.89,0,0,0,6.21-4.48c1.13-1,3-3.76,4-4l-3.65-1c-.53-1.49-.72-1.58-.58-.26,0,.68-.06,1.37-.12,2.06-.06.89-.2,1.79-.25,2.68a44.4,44.4,0,0,0,.28,6.72,42.73,42.73,0,0,0,3.61,14.15c4.71,9.77,15.6,12.72,25.48,9,11.37-4.31,15.91-17.26,17.27-28.35,1.95-15.76-3.1-31-9.61-45.11-2-4.38-8.49-.58-6.48,3.78Z"/><path class="cls-1" d="M190,454.87c-2.22,17.94-3.36,43.29-22,52.33-5.72,2.78-12.31,3-18.67,3.17-21.53.59-57.31,3.9-65.76-22.83-4.54-14.34,6-31.1,20.69-32.6,3.32-.34,6.67.09,10-.05,5.91-.25,11-3.93,16.18-6.52"/><path class="cls-2" d="M186.26,454.87c-1.56,12.84-2.18,27-8.89,38.43a25.12,25.12,0,0,1-16.92,12.42c-7,1.39-14.49,1-21.6,1.24-11.81.31-24.42.45-35.59-4-12.14-4.79-20.55-17.51-15.45-30.53,3-7.62,9.8-13.38,18.09-13.89,4.77-.29,9.36.51,14-1,4.39-1.38,8.34-3.91,12.4-6,4.29-2.22.5-8.69-3.78-6.47-4.54,2.34-9.06,5.56-14.29,6-5,.42-9.86-.51-14.77.93a29.14,29.14,0,0,0-17.29,14.7c-6.9,13.53-2.47,29.59,9.64,38.46,11.64,8.53,27.44,9.41,41.35,9.33,15.58-.09,34.3,1.5,45.83-10.92,12-12.91,12.75-32.23,14.76-48.77.58-4.79-6.92-4.74-7.5,0Z"/><path class="cls-1" d="M114,394c-4.9,17.41-9.85,42.3-29.67,48.42-6.08,1.88-12.63,1.11-18.94.32-21.38-2.67-57.25-4.8-61.57-32.5-2.32-14.86,10.67-29.83,25.38-29.1,3.33.17,6.58,1.09,9.89,1.45,5.88.65,11.48-2.22,17-4"/><path class="cls-2" d="M110.42,393c-3.42,12.25-6.07,25.73-13.88,36.11-4.41,5.86-10.69,10-18.1,10.61-7,.6-14.17-.87-21.08-1.7-11.6-1.4-23.93-3-34.42-8.49C11.9,423.79,3.86,411.69,8.85,399c3-7.67,10.58-14,19-14.16,5-.11,9.75,1.86,14.76,1.48s9.74-2.53,14.47-4.14c4.55-1.54,2.6-8.78-2-7.23-5.42,1.84-10.76,4.48-16.63,3.78-4.89-.59-9.36-1.84-14.32-1-8,1.3-14.85,6.34-19.31,13-8.55,12.68-5.33,29.81,6,39.67,10.64,9.28,25.38,12.29,39,14.2,15.28,2.14,32.79,6.37,46-4,13.72-10.79,17.45-29.67,21.89-45.57,1.31-4.66-5.93-6.64-7.23-2Z"/><path class="cls-1" d="M252.05,144c-14.68-31.17,20-68.06,49.25-73.63,43.25-8.26,79.35,35.37,68.71,76.77-4.93,19.18-19.59,34.39-39.5,37.27-21.79,3.15-48-11.51-64.56-24.55-5.49-4.33-10.72-9.27-13.75-15.56Z"/><path class="cls-2" d="M255.29,142.11c-9.65-21.49,6-44.66,23-57.08,18-13.16,40.88-16.07,60.49-4.38a61.13,61.13,0,0,1,29.31,53.14c-.58,22.89-16.42,45.28-40.47,47.19-14.37,1.14-28.77-4.84-41-11.75-11.43-6.45-25.49-14.86-31.33-27.12-2.08-4.35-8.54-.55-6.48,3.79,6,12.54,19.69,21.34,31.27,28.21,12.42,7.37,26.4,13.43,41,14.38,27.26,1.77,49.44-19.63,53.69-45.69,4-24.49-6.62-49.76-26.32-64.67-20.34-15.4-47.22-16.18-68.83-3-23.26,14.23-43.14,43.19-30.78,70.73C250.79,150.3,257.25,146.49,255.29,142.11Z"/><circle class="cls-1" cx="354.24" cy="149.74" r="14.29"/><path class="cls-2" d="M364.78,149.74c-.64,13.49-21,13.64-21.08,0s20.44-13.5,21.08,0c.23,4.81,7.73,4.84,7.5,0-.46-9.79-7.88-18-18-18a18,18,0,0,0,0,36.08c10.16,0,17.58-8.25,18-18C372.51,144.92,365,144.93,364.78,149.74Z"/><path class="cls-1" d="M280.64,79.54A170.29,170.29,0,0,1,351,135.83"/><path class="cls-2" d="M278.74,82.77a169,169,0,0,1,69,55c2.83,3.84,9.34.11,6.48-3.79A175.94,175.94,0,0,0,282.53,76.3c-4.38-1.9-8.21,4.56-3.79,6.47Z"/><path class="cls-1" d="M249.73,118.77c9.62,23,39.66,41.65,65.22,46.57,11,2.12,19.55.59,30.3-3.73"/><path class="cls-2" d="M246.49,120.67c7.59,17.43,23.83,30.36,40.44,38.76a104.07,104.07,0,0,0,26.35,9.39c11.49,2.3,22.14.64,33-3.6,4.44-1.74,2.51-9-2-7.23-10,3.93-19.68,5.65-30.33,3.32a98.41,98.41,0,0,1-24.56-9.06c-15.09-7.88-29.45-19.43-36.39-35.37-1.92-4.41-8.39-.6-6.48,3.79Z"/><polyline class="cls-1" points="365.28 158.82 399.25 174.82 381.11 217.33"/><path class="cls-2" d="M363.39,162.05l34,16L396,172.93l-18.13,42.51c-1.88,4.39,4.58,8.22,6.47,3.79l18.14-42.52c.73-1.73.66-4.18-1.35-5.13l-34-16c-4.35-2.05-8.16,4.42-3.79,6.47Z"/><polyline class="cls-1" points="371.89 141.17 396.33 152.38 388.15 167.34"/><path class="cls-2" d="M370,144.41l24.44,11.21-1.35-5.13-8.18,15c-2.32,4.24,4.16,8,6.47,3.79l8.19-15c.9-1.64.54-4.26-1.35-5.13l-24.44-11.21c-4.36-2-8.17,4.46-3.78,6.48Z"/><path class="cls-1" d="M181.1,279.29a16.81,16.81,0,0,1,1.82-8.2c14-20,28-38,32-61-35,11-76,1-98-31-2-4-3-9-1-13,7-12,16-25,31-27,9,6,17,12,26,19,2,1,5,3,7,3,6,0,10-4,16-6,19-5,38-6,56.28-10.78"/><path class="cls-2" d="M184.85,279.29c0-6.73,5.26-11.89,8.93-17.13s7.46-10.78,10.84-16.39c6.5-10.76,11.61-22.28,13.91-34.69.5-2.67-1.67-5.51-4.61-4.61-23.8,7.28-50.36,5.07-71.68-8.24a76.09,76.09,0,0,1-14.45-11.71c-4.38-4.55-11.05-11.07-8.81-18.07,1.77-5.55,7.17-11.79,11.1-15.94,4.95-5.23,10.68-8.66,17.84-9.81l-2.89-.37c8.66,5.81,16.65,12.53,25.24,18.41,6.94,4.76,12.79,4.72,20.22,1,9.39-4.71,19.82-6.1,30.12-7.76,10.92-1.74,21.85-3.32,32.58-6,4.68-1.19,2.7-8.43-2-7.24-11.66,3-23.56,4.55-35.41,6.51-5.72,1-11.43,2-17.07,3.32s-9.94,4.47-15.25,6.18-9.2-2.29-13.09-5.27c-4.69-3.6-9.43-7.15-14.26-10.56-3.71-2.63-6.91-6.07-11.68-5.16a33.23,33.23,0,0,0-12.56,5.36c-7.19,5-12.49,12.14-17,19.51-5.1,8.27-4.49,16.2,1.43,23.95a85.19,85.19,0,0,0,41.8,29.19,97.3,97.3,0,0,0,57.85,0l-4.62-4.61c-2.51,13.53-8.46,25.66-15.82,37.19-3.73,5.82-7.73,11.47-11.71,17.11-3.65,5.17-6.41,9.35-6.42,15.9,0,4.82,7.49,4.83,7.5,0Z"/><path class="cls-1" d="M336.69,268.08c-6,23.29-10.62,47.77-23.46,68.52-3.59,5.81-7.64,14.77-12.54,19.53"/><path class="cls-2" d="M333.08,267.08c-4,15.65-7.38,31.54-13,46.71a137.29,137.29,0,0,1-10.74,22c-3.53,6-6.41,12.61-11.28,17.65-3.36,3.47,1.94,8.78,5.3,5.31,5-5.22,8.17-11.77,11.76-18a165.8,165.8,0,0,0,11-21.8c6.4-16.12,9.94-33.18,14.25-49.93,1.2-4.68-6-6.67-7.23-2Z"/><path class="cls-1" d="M344.14,180.2C350.65,185,361,191.58,367.08,197a49,49,0,0,1,8.33,10.48,147.54,147.54,0,0,1,16.23,35.23c3.95,12.78,4.77,26.6,4.68,39.92-.07,10.91-1.15,23.68-8.72,32.35a28,28,0,0,1-17.49,9,36.3,36.3,0,0,1-14.21-1.24c-3.63-1-10.33-2.75-12.85-5.76s-2.34-8.82-2.53-12.58a76.45,76.45,0,0,1,.79-15.56c.55-3.57,1.35-7.2.74-10.76-1.05-6.15-1.78-5.31-5.36-10"/><path class="cls-2" d="M342.25,183.44c6,4.4,12.31,8.4,18.21,12.95,6.73,5.17,11.19,11.72,15.34,19,8.88,15.64,14.89,32.71,16.27,50.7,1.1,14.24,3,34.5-7.12,46.19-5.76,6.67-14.77,9.06-23.28,7.84-5.58-.8-15.62-2.42-16.95-8.82-1.91-9.17.3-18.75,1.14-27.86.73-7.84-2-12.25-6.51-18.05-3-3.8-8.25,1.54-5.31,5.3,2.18,2.79,3.8,4.36,4.28,8,.7,5.26-1,10.68-1.43,15.94-.53,7-1.6,18.14,2.92,24.22,3.89,5.22,12.53,7.16,18.59,8.31,8.59,1.63,17.68.65,25.2-4,15.06-9.39,16.6-28.1,16.47-44.19-.15-20.73-4.25-40-13.28-58.72-4.47-9.26-9.74-19.46-17.56-26.35-7.18-6.34-15.49-11.3-23.2-16.95-3.9-2.85-7.64,3.65-3.78,6.48Z"/><polyline class="cls-1" points="300.69 356.13 327.83 371.27 337.84 351.12"/><path class="cls-2" d="M298.8,359.37l27.14,15.14a3.79,3.79,0,0,0,5.13-1.34l10-20.16c2.14-4.3-4.33-8.11-6.48-3.78l-10,20.15,5.13-1.34L302.58,352.9c-4.22-2.36-8,4.12-3.78,6.47Z"/><path class="cls-1" d="M215.27,346c-10.32,5.76-11.94,8.05-23.11,11.39a96.75,96.75,0,0,0-30.83,15.92c-10.14,7.77-16,16.51-18.73,28.89-3.4,15.56-7.93,30.87-12.11,46.22,5.52,4.21,11.28,8.53,18.06,10.05a39.48,39.48,0,0,0,7.2.79,104.65,104.65,0,0,0,31.1-3.59,7.41,7.41,0,0,0,2.91-1.28,7.74,7.74,0,0,0,1.88-2.92c2.86-6.41,5.22-19.19,12.62-21.55,3.17-1,6.58-.79,9.9-.77,17.17.1,33-7.08,47.21-16.22,13.64-8.8,28.77-17.81,34.22-33.92,2.67-7.9,3.7-16.43,4.74-24.66"/><path class="cls-2" d="M213.38,342.73c-4.43,2.49-8.67,5.39-13.23,7.64-5.49,2.7-11.54,4-17.19,6.26-11.22,4.55-22.36,11.06-30.86,19.79-7.86,8.07-11.47,17.69-13.95,28.48-3.29,14.28-7.42,28.35-11.28,42.48a3.91,3.91,0,0,0,1.72,4.24c6.28,4.77,12.8,9.41,20.74,10.76,8.42,1.43,17.46.7,25.85-.52,6.92-1,16.34-1.45,19.7-8.54,2.46-5.2,3.42-11.08,6.49-16,4.28-6.88,14.27-4.12,21.27-5a82.05,82.05,0,0,0,22.83-6.52,155.42,155.42,0,0,0,38.73-24.49,50.66,50.66,0,0,0,13.94-18.58c3.71-9,4.73-18.87,5.94-28.43.61-4.77-6.9-4.73-7.5,0-1,8.17-2,16.6-4.86,24.36-2.39,6.44-6.7,11.82-11.74,16.39-10.09,9.16-23,17.06-35.23,22.88a77.31,77.31,0,0,1-21.44,6.78c-6.87,1-15-.81-21.43,2.1-4.56,2.05-7.2,6.58-9.11,11s-2.84,12.56-7.81,14.45c-8.52,3.23-19.29,3.49-28.29,3.24-9.84-.27-16.68-4.57-24.29-10.35l1.72,4.24c3.61-13.22,7.45-26.37,10.63-39.7,2.63-11.06,5.29-20.76,13.67-29,8.63-8.44,20.08-14.81,31.44-18.7,4.94-1.68,9.93-3,14.6-5.43,4.37-2.23,8.46-5,12.72-7.39s.43-8.85-3.78-6.47Z"/><path class="cls-1" d="M181.26,275.66c-1.07,1,0,4.63-1,5.63-3,6-10,8.94-16,10.94-18,5-37,4-55,11a48.75,48.75,0,0,1-7,3c-7,4-14,7-19,14-12,17-16,35-25,52-1,3-2,6-1,8,14,16,37,17,56,14,5-6,7-14,13-20s15-3,23-1c4,1,9,0,12.93-.75"/><path class="cls-2" d="M178,273.77c-.91,1.63-.81,3-1.07,4.7s-1,3-2.83,4.61c-3.87,3.52-9.45,5.25-14.44,6.43-11.43,2.7-23.2,3.38-34.73,5.52a97.32,97.32,0,0,0-30.23,11c-10,5.64-16.11,13.09-21.46,23.2s-9,20.6-13.49,30.92c-2.08,4.78-5.13,9.45-6.28,14.58s.42,7.86,4.09,11.24c13.62,12.52,33.22,14.66,50.88,12.61,2-.23,4.82-.13,6.61-1.16s3.36-4,4.44-5.82c3-5,5.25-11.73,10.06-15.35s11.33-1.3,16.47,0c5.88,1.5,11.16.91,17.07-.2,4.74-.9,2.73-8.13-2-7.24a33,33,0,0,1-15.24-.35c-4-1-8.24-1.87-12.39-1.46-9.1.89-13.82,8.63-17.79,16a54.54,54.54,0,0,1-3.47,6.15c-1.51,2.09-3.42,1.93-5.81,2.16a93.2,93.2,0,0,1-12.61.42c-8.63-.34-17.39-2.15-24.88-6.6a35.8,35.8,0,0,1-5.5-4c-2.38-2.1-3.12-3-2.21-6.16,1.39-4.86,4.46-9.63,6.43-14.31,4.14-9.82,7.78-19.88,12.94-29.23,2.65-4.8,5.49-9.78,9.64-13.44,3.59-3.18,8.18-5.65,12.45-7.79,9.65-4.83,19.9-7.44,30.53-9,11.44-1.7,23.68-2.18,34.59-6.3,4.39-1.65,8.75-3.7,12.13-7a16.84,16.84,0,0,0,3.7-5.06c.66-1.53.18-4,.87-5.27,2.34-4.23-4.14-8-6.47-3.79Z"/><path class="cls-1" d="M185.29,359.56c7.2-.64,14.57,5.95,20.25,10.41,8.49,6.67,17.1,13.46,23.53,22.14s10.53,19.64,8.76,30.3"/><path class="cls-2" d="M185.29,363.31c6.87-.16,12.54,5.3,17.6,9.31s10.3,8.1,15,12.64c9.73,9.33,18.25,22,16.3,36.15-.66,4.72,6.57,6.76,7.23,2,2.27-16.39-5.64-31-17-42.26-5.95-5.91-12.65-11-19.22-16.19-5.85-4.61-12.13-9.33-19.93-9.14-4.82.11-4.83,7.62,0,7.5Z"/><path class="cls-1" d="M146.92,390.57c-.27,5.08,2.54,8.93,5.51,13.05A112,112,0,0,0,192,437.68"/><path class="cls-2" d="M143.17,390.57c.13,11.16,10.38,21.42,17.76,28.89a117.62,117.62,0,0,0,29.19,21.46c4.27,2.24,8.07-4.23,3.78-6.47a111.14,111.14,0,0,1-25.31-18,108.86,108.86,0,0,1-10-10.91c-3.42-4.29-7.83-9.25-7.9-15,0-4.82-7.55-4.84-7.5,0Z"/><path class="cls-1" d="M85.33,490.48a243.65,243.65,0,0,0,40.2,9c18.11,2.48,37.22,2.78,53.91-4.66"/><path class="cls-2" d="M84.33,494.1c30.27,9.41,66.72,17,97,4,4.42-1.9.61-8.36-3.79-6.48-14.15,6.07-29.84,6.5-45,5a235.2,235.2,0,0,1-46.26-9.73c-4.62-1.44-6.59,5.8-2,7.23Z"/><path class="cls-1" d="M124.45,298.88c7.22.26,13,5.73,18.12,10.86,7.6,7.68,15.29,15.48,20.59,24.89s8,20.8,4.94,31.15"/><path class="cls-2" d="M124.45,302.63c6.41.56,11.16,5.46,15.46,9.76a185.45,185.45,0,0,1,13.35,14.41c8.6,10.64,14.92,24.14,11.23,38-1.25,4.67,6,6.66,7.23,2,4.25-16-2.27-31.48-12.09-43.95A174.32,174.32,0,0,0,143,304.89c-5.31-5.09-11-9.1-18.54-9.76-4.81-.42-4.78,7.08,0,7.5Z"/><path class="cls-1" d="M80.6,324.1c-.91,5,1.48,7,3.92,11.47C92.92,351,108.45,367.09,123,377"/><path class="cls-2" d="M76.85,324.1c-.68,5.76,2.42,9.95,5.19,14.73a116.92,116.92,0,0,0,10.48,15,139.15,139.15,0,0,0,28.54,26.39c4,2.76,7.72-3.74,3.78-6.48A131.89,131.89,0,0,1,100,351.18a108.1,108.1,0,0,1-9.9-13.41c-2.5-4-6.37-8.75-5.79-13.67s-6.95-4.74-7.5,0Z"/><path class="cls-1" d="M7.1,413.43a243.93,243.93,0,0,0,38.78,13.94c17.66,4.71,36.58,7.38,54.07,2.07"/><path class="cls-2" d="M5.21,416.66c28.75,13,64.12,25.49,95.73,16.39,4.63-1.33,2.66-8.57-2-7.23-15.09,4.34-30.73,3-45.84-.51A236.12,236.12,0,0,1,9,410.19c-4.36-2-8.18,4.48-3.79,6.47Z"/><path class="cls-1" d="M336.69,268.08A33.13,33.13,0,0,1,351,242.36c5-3.35,10.77-5.26,16.47-7.13l16.38-5.37"/><path class="cls-2" d="M340.44,268.08A29.56,29.56,0,0,1,355,244.31c9-5.21,20-7.61,29.86-10.84,4.57-1.5,2.62-8.74-2-7.23-11.66,3.82-25.4,6.55-35.37,14.06a37.45,37.45,0,0,0-14.58,27.78c-.3,4.82,7.2,4.8,7.5,0Z"/><path class="cls-1" d="M342.29,292a88.82,88.82,0,0,0,38.1-3.83,28.25,28.25,0,0,0,7.38-3.39c3.71-2.59,6.2-6.54,8.58-10.39"/><path class="cls-2" d="M342.29,295.73a93.8,93.8,0,0,0,34.7-2.65c4.85-1.32,9.85-2.87,13.87-6,3.71-2.89,6.27-6.88,8.73-10.83s-3.93-7.87-6.48-3.78c-2.34,3.77-4.7,7.58-8.61,9.91s-8.73,3.36-13.07,4.35a88.08,88.08,0,0,1-29.14,1.49c-4.79-.52-4.76,7,0,7.5Z"/><path class="cls-1" d="M140.23,197.15c-.85-10.39,3.64-20.47,8.93-29.46,3.45-5.85,7.67-11.8,14-14.29"/><path class="cls-2" d="M144,197.15c-.47-8.84,2.5-16.88,6.69-24.53,3.52-6.43,7.43-12.91,14.38-16,4.41-1.94.6-8.41-3.78-6.47-8.05,3.56-13,11.22-17.08,18.67-4.78,8.75-8.25,18.22-7.71,28.32.26,4.8,7.76,4.83,7.5,0Z"/><path class="cls-1" d="M202.12,157.36l2.18,27.58a76.77,76.77,0,0,1,.37,8.44,39.67,39.67,0,0,1-4.45,17.13"/><path class="cls-2" d="M198.37,157.36q1,13.29,2.11,26.6c.68,8.71.44,16.66-3.5,24.66-2.13,4.31,4.34,8.12,6.47,3.78,8.39-17,3.86-36.9,2.42-55-.38-4.78-7.88-4.82-7.5,0Z"/><path class="cls-1" d="M233.32,236.91S245,212.3,247.91,199.15a115,115,0,0,0,45.48,21c6.16,1.33,12.47,2.16,18.4,4.3a2.27,2.27,0,0,1,1.34.92,2.36,2.36,0,0,1-.06,1.75L297.8,277c-19.78-6.72-39.54-13.6-58.72-21.89-4.25-1.83-8.52-3.77-12.09-6.72,2.32-3.7,4.94-7.33,6.33-11.51"/><path class="cls-2" d="M236.55,238.8c5.84-12.37,11.82-25.31,15-38.66L246,202.39C261.49,214,279,221.18,298,224.87c2.48.49,5,1,7.41,1.57a31.66,31.66,0,0,0,3.63,1c.21,0,.79-2.53-.12.51-1.57,5.25-3.2,10.48-4.8,15.71L294.18,276l4.62-2.62c-11.69-4-23.37-8-34.93-12.34-5.63-2.12-11.23-4.3-16.79-6.6-5.93-2.45-12.32-4.75-17.44-8.72l.59,4.55a66.88,66.88,0,0,0,6.7-12.4c1.69-4.53-5.56-6.49-7.23-2-1.43,3.84-3.77,7.18-5.95,10.61a3.78,3.78,0,0,0,.59,4.55c9.76,7.56,22.56,11.53,34,15.89,12.72,4.86,25.6,9.3,38.48,13.69a3.82,3.82,0,0,0,4.62-2.62l10.74-35.13c1.54-5,4.4-10.92,4.79-16.17.3-4-2.65-5.43-5.95-6.5-10.5-3.39-21.53-4.32-32-8.15a114.28,114.28,0,0,1-29.23-16.17c-1.93-1.45-5,.08-5.51,2.24-3,12.74-8.65,25.06-14.22,36.87-2.05,4.34,4.42,8.15,6.47,3.78Z"/><path class="cls-1" d="M245.49,212.64a89.39,89.39,0,0,0,62.65,24.13"/><path class="cls-2" d="M242.84,215.29a94.4,94.4,0,0,0,65.3,25.23c4.83-.06,4.84-7.56,0-7.5a86.57,86.57,0,0,1-60-23c-3.54-3.28-8.86,2-5.31,5.31Z"/><path class="cls-1" d="M182.58,282.32c9.31,6.38,19.11,13.34,23.43,23.77a58.21,58.21,0,0,1,2.84,10.16L215.27,346"/><path class="cls-2" d="M180.69,285.56c9.07,6.24,18.95,13.08,22.6,24,4,12,5.7,25.08,8.37,37.4,1,4.72,8.25,2.72,7.23-2l-4.82-22.29c-1.39-6.44-2.39-13.15-5.13-19.18-4.91-10.81-15-17.9-24.47-24.41-4-2.74-7.74,3.75-3.78,6.47Z"/><path class="cls-1" d="M299.5,354.59c-11.66-8-24.17-16.22-37.39-16.37A61.7,61.7,0,0,0,250,339.69l-34.51,6.52"/><path class="cls-2" d="M301.39,351.36c-11.66-7.95-24.61-16.74-39.28-16.89-7.61-.07-15.29,2-22.72,3.42l-24.92,4.71c-4.74.89-2.73,8.12,2,7.23l22-4.17c7.15-1.35,14.54-3.37,21.84-3.66,13.91-.56,26.3,8.36,37.26,15.83,4,2.73,7.75-3.77,3.78-6.47Z"/><path class="cls-1" d="M309,160.06c-2.29.36-4.25-1.59-5.64-3.46-7.67-10.38-10.76-23.36-13.67-35.94A31.13,31.13,0,0,0,291.86,140a45.88,45.88,0,0,0,11.91,15.67l-9.45-3.77a6,6,0,0,1-4.52-4.7l-1.93-5.64a10.37,10.37,0,0,1-.76-3.66c.07-1.83,1.12-3.46,2.09-5a124.83,124.83,0,0,0,12.61-26.66c-2.86.76-4.33,4-4.63,6.94s.19,6-.55,8.85a17.93,17.93,0,0,1-1.7-7.2l-1.15-.13c-.48-1.49,1-2.83,2.41-3.56a25.75,25.75,0,0,1,10.54-2.93,6.73,6.73,0,0,1,4.11.76,7.17,7.17,0,0,1,2.16,2.7c3.35,6.22,5,13.21,6.14,20.19a168.49,168.49,0,0,1,2.18,32c-4.07-.44-7.35-3.57-9.54-7s-3.61-7.35-5.88-10.75c-2.42-3.61-5.79-6.62-7.56-10.59-2.54-5.72-1.34-12.32-.09-18.45.25-1.22.71-2.67,1.93-2.93a2.81,2.81,0,0,1,1.67.3c3.42,1.47,5.86,4.67,7.23,8.13a42.77,42.77,0,0,1,2.24,10.9l3,25.59a51.6,51.6,0,0,1-13.1-8.32c-1-.85-1.95-2.39-1-3.28.69-.64,1.82-.26,2.56.33a6,6,0,0,0,2.31,1.55l-4.34-27.94,12.09,23.81.4-1.66,3.1,7.9a99.68,99.68,0,0,0-6.3-30.28c-1.34-3.52-2.88-7-3.27-10.77a49.75,49.75,0,0,0,8.19,1.66,40.72,40.72,0,0,1,2-3.75,1.4,1.4,0,0,1,2.5-.35,155.44,155.44,0,0,1,19.24,17c2,2.08,4,4.47,4.14,7.35.15,4.19-3.75,7.29-5.43,11.12-1.81,4.11-1,8.83-.12,13.22.49,2.49-1,4,1.18,5.28-3.08.88-4.09,2.63-7.29,2.67a6.44,6.44,0,0,1-4.36-1.11c-1.39-1.21-1.59-3.26-1.7-5.1l-1.73-29.46c-.33-5.74-.79-11.85-4.21-16.47,5.49,5.6,11,11.25,15.37,17.79a11.29,11.29,0,0,1,2.19,5c.28,2.8-1.31,5.41-2.08,8.11-1.63,5.74.49,12-1.11,17.76-2.79-.79-3.66-4.25-4-7.12l-3.6-26.7c2.08.92,3.37,3,4.53,5a11.66,11.66,0,0,1,1.74,4,4,4,0,0,1-1.37,3.92"/><path class="cls-2" d="M309,156.31c-3-.1-5.63-6.47-6.8-8.71a67.16,67.16,0,0,1-3.84-9.14,188,188,0,0,1-5.05-18.79c-.81-3.51-6.51-3.65-7.23,0-3,15.07,4,28.72,15,38.69l3.65-6.27-6.3-2.51c-3.1-1.24-4.25-2.12-5.69-5.22-1.25-2.72-2.14-5.59-1.06-8.36.66-1.7,2.05-3.32,3-4.91a133.33,133.33,0,0,0,10.75-23.84c.86-2.51-2-5.69-4.62-4.61-8.41,3.47-6.45,11-7.8,18.42h7.23a18.79,18.79,0,0,1-1.56-6.21,3.89,3.89,0,0,0-3.75-3.75l-1.15-.13,3.75,3.75c0-.93,5.36-2.15,6.3-2.34,2.78-.56,5-.65,6.33,2,2.55,4.93,3.88,10.46,4.9,15.89a164.27,164.27,0,0,1,2.51,33.58l4.74-3.61c-8.26-1.6-10.63-12.9-15.21-18.78-2.77-3.56-5.7-6.68-6.33-11.33a24.91,24.91,0,0,1,.07-6.28c.08-.75.44-6,1.23-6.5l-2.89.38c7.72,1.35,8,12.7,8.73,18.66L310.53,159l5.64-3.24a57.91,57.91,0,0,1-6.86-3.67c-1.06-.68-5.42-3.94-5.51-3.69L301.18,151l1.26-.3-2.89-.38c1.28.62,2.34,1.53,3.61,2.18,3.11,1.58,6-1,5.51-4.24l-4.34-27.93-6.86,2.89,12.09,23.81c1.45,2.87,6.12,2.15,6.85-.9l.4-1.66h-7.23l3.1,7.9c1.43,3.63,7.64,3.58,7.37-1a109.14,109.14,0,0,0-3.37-21.71c-1.82-6.84-5.31-13.33-6.33-20.34L305.74,114a68,68,0,0,0,9.18,1.8,3.61,3.61,0,0,0,3.24-1.86,14.64,14.64,0,0,1,2.27-3.88l-2.65,1.1c.84.06,4.74,3.94,6.17,5.15,2.57,2.17,5.08,4.42,7.5,6.76a49.35,49.35,0,0,1,6.14,6.38c2.35,3.3.67,5.51-1.28,8.43a20,20,0,0,0-3.63,13.74c.25,2.71.54,5.44.79,8.11a6.35,6.35,0,0,0,2.3,4.86l1.66-6.27c-1.78.64-3.57,2-5.4,2.28-3.71.66-3.22-2.36-3.38-5.15l-1-17.68c-.53-9.1,0-19.3-5.24-27.21l-5.89,4.55c3,3,5.92,6,8.71,9.22,2.31,2.63,6.85,7,7.61,10.6s-2.26,8.28-2.53,11.95c-.32,4.45.57,8.86-.39,13.27l5.51-2.24c-3.49-1.59-3.16-11.12-3.6-14.42l-2.32-17.16-5.5,4.23c.89.52,5.66,5.45,4.14,7-3.39,3.45,1.91,8.75,5.3,5.31,5.69-5.79.2-15.34-5.66-18.77-3.12-1.83-5.92,1.17-5.51,4.23l3.09,22.88c.67,5,1.1,10.82,6.28,13.18,2.06.94,4.95.33,5.51-2.24,1.11-5.14.1-10.11.65-15.26.52-4.83,3.7-8.94,2.26-13.95-1.12-3.92-4.13-7.31-6.63-10.43-3.59-4.49-7.61-8.6-11.62-12.7-2.92-3-8.29.93-5.89,4.55,3.66,5.51,3.56,12.13,3.93,18.51l1.27,21.6c.28,4.73,0,10.69,5.09,13s8.73-.29,13.24-1.91c2.45-.88,3.94-4.27,1.65-6.27-.25-.22-.13-3.05-.21-3.63a52.48,52.48,0,0,1-.81-5.72c-.11-4.59,2.21-7,4.33-10.63,3.34-5.76,2.17-11-2.09-15.92-5.5-6.32-12.15-11.87-18.76-17-5.74-4.42-8.84-2.42-11.85,3.76l3.24-1.86a55.05,55.05,0,0,1-7.19-1.53c-3-.82-5,1.89-4.61,4.62.93,6.42,4.06,12.35,5.84,18.57a98.43,98.43,0,0,1,3.59,21.48l7.37-1-3.11-7.91c-1.25-3.18-6.29-3.92-7.23,0l-.4,1.67,6.85-.9L304,119.47c-2.08-4.09-7.46-1-6.86,2.89l4.34,27.93,5.51-4.23c-2.59-1.32-4.63-3.54-7.76-2.25a5,5,0,0,0-3,5.66c1.13,6,11.46,10.6,16.21,12.79,2.26,1,6-.13,5.64-3.24l-2.28-19.69c-.7-6-.91-12.55-3.25-18.25-2.4-5.88-13.52-17-17.53-6.29a29.36,29.36,0,0,0,4.25,28.77c6.43,8.08,9.58,21.68,21.1,23.9a3.81,3.81,0,0,0,4.75-3.62c.36-16.59-.43-35.49-7.3-50.87-2.82-6.33-6.48-9.21-13.6-8.22-5.41.75-14.26,3.14-14.14,10a3.85,3.85,0,0,0,3.75,3.75l1.15.13-3.75-3.75a24.86,24.86,0,0,0,1.83,8.2c1.25,3,6.48,4.1,7.23,0,.54-3-.76-11.81,2.57-13.18l-4.62-4.61a123.69,123.69,0,0,1-7.87,18.25c-2.27,4.25-6.54,9-6.89,13.93-.2,2.76.91,5.41,1.79,8s1.54,5.43,3.41,7.4c3.3,3.48,9.83,4.79,14.14,6.51,3.52,1.4,6.3-3.87,3.65-6.27-8.87-8-15.58-19-13.12-31.4h-7.23c2,8.82,4.18,17.64,7.85,26,2.8,6.35,7.07,15.94,15.07,16.2,4.83.16,4.82-7.34,0-7.5Z"/><path class="cls-1" d="M255.06,115.48a26.08,26.08,0,0,0,2.16,8.81,12.33,12.33,0,0,0,6.33,6.27l-2.71-8.19A78.73,78.73,0,0,1,257,104.82c9,13.61,7.75,30.78,19.05,42.58,1.39,1.45,3.25,2.85,5.21,2.43l-6-4.71c-5.08-4-10.24-8.05-13.86-13.38,10.53,4.17,18.76,12.49,27.13,20.13,1.28,1.16,2.67,2.37,4.37,2.62l-4.78-6.85a213.5,213.5,0,0,1-11.75-18.09A214.63,214.63,0,0,1,266.32,108a14.23,14.23,0,0,0-1.36-2.7,7.36,7.36,0,0,0-3.76-2.8c3.57,11.53,7.26,23.31,14.53,32.94-.19-3.64-2.08-6.93-3.72-10.18a86.25,86.25,0,0,1-5.25-12.93,26.18,26.18,0,0,1-1.48-8,11,11,0,0,1,2.7-7.48c2-2.1,4.95-3,7.15-4.94,1.91-1.65,3.38-4.08,5.83-4.71,3.29-.84,6.25,2,8.86,4.13,7.47,6.21,17.57,8.72,24.68,15.34a72.11,72.11,0,0,0-12.18-9.86,28.61,28.61,0,0,0-7.22-3.58c-3.53-1-7.27-1-11-.93a14,14,0,0,0-4.78.63,11.57,11.57,0,0,0-4.24,3.18c-3.28,3.57-5.78,8.17-5.63,13l12.05-12.79c-3.83,7-7.78,14.91-5.78,22.64l5.52-16.8c.53-1.61,1.13-3.31,2.49-4.31s3.71-.79,4.28.8a4,4,0,0,1-.69,3.2c-4.08,7.38-9.56,14.4-10.55,22.77-.08.68.11,1.65.8,1.64.49,0,.78-.55,1-1,3.35-8.67,5.17-17.92,9.21-26.28,1.2-2.46,3.13-5.16,5.86-5-3,15.37-10.71,29.61-13,45.11,2.6-5.59,3.8-11.7,5.63-17.59s4.43-11.79,9.11-15.79c1-.87,2.2-1.76,2.46-3.07s-1.25-2.87-2.33-2.08A43.74,43.74,0,0,1,313.4,112a.64.64,0,0,1-1.06.17,3.28,3.28,0,0,1,.1,4.91"/><path class="cls-2" d="M251.31,115.48c.88,7.5,3.08,14.79,10.34,18.32,2.73,1.33,6.61-.9,5.51-4.23-2.7-8.19-5.38-16.15-6.41-24.75l-7,1.89c5.51,8.67,7.07,18.72,10.64,28.19,2.69,7.16,7.87,18.68,16.86,18.68,3,0,5.32-4.31,2.65-6.4-6.72-5.27-14.24-10.31-19.28-17.33l-4.23,5.5c6.65,2.79,12.33,7.27,17.67,12,4.17,3.7,8.31,9.14,13.84,10.72,3,.85,6.15-2.76,4.23-5.51-6.23-8.91-12.75-17.71-17.84-27.35-2.57-4.86-4.8-9.89-6.95-14.94-2-4.63-3.38-8.86-8.25-11.07-2.78-1.25-6.56.84-5.51,4.24,3.66,11.83,7.52,23.73,14.9,33.83,1.91,2.62,7.47,2.23,7-1.89-.88-7.5-5.47-13.78-8-20.79-1.29-3.6-3.19-8.14-2.3-12s4.37-4.91,7.25-7c2.63-1.94,4.46-5.68,7.94-3.81,3,1.62,5.57,4.49,8.56,6.3,6.29,3.81,13.33,6.33,18.9,11.25,3.59,3.17,8.78-1.88,5.31-5.3a75.49,75.49,0,0,0-14.31-11.31c-5.62-3.32-11.3-4.27-17.77-4.18-5.46.08-9.46,1.33-13.12,5.54a23.55,23.55,0,0,0-6.2,15.06,3.79,3.79,0,0,0,6.4,2.65L284.2,99l-5.89-4.54c-4.34,8-8.05,16.25-6.16,25.53.79,3.85,6.16,3.28,7.23,0,1.74-5.29,3.42-10.61,5.22-15.87.46-1.34,1.19-2.12.2-3.28-1.16-1.34-1.14,0-1.85,1.22-1.21,2.07-2.48,4.1-3.69,6.17-2.64,4.54-9.83,16.23-4.29,20.71a3.93,3.93,0,0,0,4.54.59c4.07-2.27,5-10,6.26-14,.94-3,1.87-6.11,3-9.11.63-1.72,2.42-8.39,4.92-8.69L290,93c-3.24,15.37-10.5,29.56-13.06,45.1-.62,3.8,5,7.12,6.86,2.89,4.25-9.72,4.82-22.24,12-30.47,2.34-2.69,6.18-4.74,5.63-8.86a5.47,5.47,0,0,0-7-4.7c-3.86.87-3.26,6.07,0,7.23a42.26,42.26,0,0,1,16.27,10.49l.76-5.89-.49.37,2.89-.38-.57-.19c-3.8-1.3-5.93,3.65-3.65,6.26l.1-.39c-3,3.73,2.28,9.07,5.3,5.3,2.69-3.34,2.76-6.93-.1-10.21l-3.65,6.27a4,4,0,0,0,4-.56c1.89-1.45,2.62-4,.76-5.88A50.52,50.52,0,0,0,296.47,97v7.23l.86-.2-2.89-.37c-.28-1.72-.86-1.91-1.75-.55l-1.13,1a27.92,27.92,0,0,0-2.6,3,37,37,0,0,0-4.52,8.26c-2.91,7.09-4,14.77-7.08,21.8l6.85,2.89c2.56-15.54,9.82-29.74,13.06-45.11.44-2.12-1-5-3.62-4.75-6.56.78-9,6.13-11.21,11.76-1.4,3.51-2.53,7.11-3.65,10.71-.51,1.67-1,3.34-1.54,5-.2.62-1.35,5.25-1.52,5.35l4.54.59-.69-.56,1.1,2.65c-.61-6.12,4.55-12.86,7.52-17.83,2.27-3.79,6.25-9.79,1.22-13.25-3.77-2.59-8.42-.38-10.43,3.26-3.3,6-4.72,13.65-6.84,20.09h7.23c-1.44-7.1,2.14-13.71,5.41-19.76,2-3.64-2.88-7.74-5.89-4.54l-12.06,12.79,6.41,2.65c.11-4,2.16-8.79,5.47-11.33S287,95.74,291,96.26c8.11,1.07,15.23,7.55,20.84,13.07l5.31-5.3c-6.88-6.08-15.57-8.88-23-14.08-3.44-2.41-6.4-6-10.8-6.51-4.13-.52-6.73,1.82-9.5,4.48-3,2.89-7.18,4.24-9.66,7.72a16,16,0,0,0-2.49,11.12c.53,4.81,2.3,9.48,4.14,13.91,2,4.72,5.54,9.62,6.14,14.74l7-1.89c-7-9.62-10.66-20.79-14.15-32l-5.51,4.23c4.16,1.88,5.63,8.61,7.38,12.58a152.58,152.58,0,0,0,6.88,13.93c4.79,8.41,10.56,16.24,16.1,24.16l4.23-5.51c-2.86-.82-5.37-4.1-7.5-6.06-2.6-2.38-5.22-4.75-8-7a66.68,66.68,0,0,0-16-9.73c-3-1.24-6.05,3-4.23,5.51,5.49,7.66,13.11,13.1,20.45,18.86l2.65-6.41c-3.89,0-7.28-7.69-8.6-10.63a86.55,86.55,0,0,1-3.79-11.11c-2.19-7.44-4.44-14.81-8.63-21.41-1.82-2.86-7.46-2.06-7,1.89,1.11,9.3,3.75,17.88,6.68,26.74l5.51-4.23c-4.77-2.32-6.05-6.92-6.63-11.85-.55-4.73-8.06-4.79-7.5,0Z"/><path class="cls-2" d="M304.08,110.12c-3.26,0-8.25,1-11.28-.17l2.24,1.72-.46-.79.38,2.89.3-.77-2.62,2.62c2.88-.68,5.77,2.66,6.54,5l6.27-3.65-.46-.51,1.1,2.65a50.27,50.27,0,0,1-.09-6.61c0-2-.59-5.07,0-7l-3.61,2.75a39.47,39.47,0,0,1,3.56,3,17.24,17.24,0,0,1,1.77,2c.55.75,1,2.49,1.39.9l2.62-2.62c-2.57.94-3.66-1.62-5.54-3.06a25.71,25.71,0,0,0-7.22-3.79c-4.55-1.64-6.51,5.6-2,7.23a17,17,0,0,1,6.32,3.94c1.29,1.27,2.4,2.84,4.25,3.35,2.9.79,7.95,0,8.86-3.28,1.64-6-8.75-14.78-14-15.21a3.81,3.81,0,0,0-3.62,2.75c-1,3.14-.27,7.35-.27,10.62,0,3-.46,5.76,1.64,8.1,2.47,2.76,7.45-.13,6.27-3.65a15.19,15.19,0,0,0-6.6-8.51c-2.71-1.6-7.63-3.2-10.44-1s-1.92,6.4,1,7.94c3.59,1.9,9.78.65,13.73.63,4.82,0,4.83-7.54,0-7.5Z"/><path class="cls-1" d="M277.12,99.18a18.52,18.52,0,0,1,10-8.51c4.53-1.58,2.58-8.83-2-7.23a26.46,26.46,0,0,0-14.47,12c-2.37,4.2,4.1,8,6.48,3.78Z"/></svg>