<svg id="Layer_1" data-name="Layer 1" xmlns="http://www.w3.org/2000/svg" viewBox="0 0 87.61 71.67"><defs><style>.cls-1{fill:#e82631;}.cls-2{fill:#a01e29;}</style></defs><title>Artboard 2</title><path class="cls-1" d="M38.9,68C28,57.05,17,46.25,6.18,35.29A21,21,0,0,1,.06,19.11C.65,11.19,6.62,4.5,13.83,1.63A23.87,23.87,0,0,1,17.29.55,19.86,19.86,0,0,1,33.15,3.37a23,23,0,0,1,4.94,4.56,22,22,0,0,1,4.54,12.85c0,1,0,2,0,3.07-.34,6.79-2.94,9.53-9.81,9.68-2.23,0-4.45.27-6.68.41l.06,1.51c1.72.09,3.45.24,5.17.25,9.29.07,11.17,2,11.23,11.56.06,8.13.24,16.27.37,24.41"/><path class="cls-2" d="M48.71,68c10.89-10.9,21.88-21.7,32.72-32.66a21,21,0,0,0,6.12-16.18C87,11.19,81,4.5,73.78,1.63A23.87,23.87,0,0,0,70.32.55,19.86,19.86,0,0,0,54.46,3.37a23,23,0,0,0-4.94,4.56A22,22,0,0,0,45,20.78c0,1,0,2,0,3.07.34,6.79,2.94,9.53,9.8,9.68,2.24,0,4.46.27,6.69.41l-.06,1.51c-1.73.09-3.45.24-5.17.25-9.29.07-11.17,2-11.24,11.56,0,8.13-.23,16.27-.36,24.41"/></svg>