<?xml version="1.0" encoding="UTF-8"?>
<svg width="78px" height="68px" viewBox="0 0 78 68" version="1.1" xmlns="http://www.w3.org/2000/svg" xmlns:xlink="http://www.w3.org/1999/xlink">
    <!-- Generator: Sketch 61.2 (89653) - https://sketch.com -->
    <title>noun_message_2057651</title>
    <desc>Created with Sketch.</desc>
    <g id="Page-1" stroke="none" stroke-width="1" fill="none" fill-rule="evenodd">
        <g id="noun_message_2057651" fill="#000000" fill-rule="nonzero">
            <path d="M52.2,67.7 C51.7,67.7 51.2,67.5 50.8,67.1 L36.5,52.8 L8.2,52.8 C3.8,52.8 0.1,49.2 0.1,44.7 L0.1,8.2 C0.1,3.8 3.7,0.1 8.2,0.1 L69.4,0.1 C73.8,0.1 77.5,3.7 77.5,8.2 L77.5,44.8 C77.5,49.2 73.9,52.9 69.4,52.9 L54.2,52.9 L54.2,65.7 C54.2,66.5 53.7,67.2 53,67.5 C52.7,67.6 52.5,67.7 52.2,67.7 Z M8.2,4.1 C6,4.1 4.1,5.9 4.1,8.2 L4.1,44.8 C4.1,47 5.9,48.9 8.2,48.9 L37.3,48.9 C37.8,48.9 38.3,49.1 38.7,49.5 L50.1,60.9 L50.1,50.9 C50.1,49.8 51,48.9 52.1,48.9 L69.3,48.9 C71.5,48.9 73.4,47.1 73.4,44.8 L73.4,8.2 C73.4,6 71.6,4.1 69.3,4.1 L8.2,4.1 Z" id="Shape"></path>
            <path d="M62.5,16.7 L14.1,16.7 C13,16.7 12.1,15.8 12.1,14.7 C12.1,13.6 13,12.7 14.1,12.7 L62.5,12.7 C63.6,12.7 64.5,13.6 64.5,14.7 C64.5,15.8 63.6,16.7 62.5,16.7 Z" id="Path"></path>
            <path d="M62.5,28.1 L14.1,28.1 C13,28.1 12.1,27.2 12.1,26.1 C12.1,25 13,24.1 14.1,24.1 L62.5,24.1 C63.6,24.1 64.5,25 64.5,26.1 C64.5,27.2 63.6,28.1 62.5,28.1 Z" id="Path"></path>
            <path d="M36.2,39.6 L14.1,39.6 C13,39.6 12.1,38.7 12.1,37.6 C12.1,36.5 13,35.6 14.1,35.6 L36.2,35.6 C37.3,35.6 38.2,36.5 38.2,37.6 C38.2,38.7 37.3,39.6 36.2,39.6 Z" id="Path"></path>
        </g>
    </g>
</svg>